<svg height="384pt" viewBox="0 -24 384 384" width="384pt" xmlns="http://www.w3.org/2000/svg"><path d="m16 280h352c8.832031 0 16-7.167969 16-16s-7.167969-16-16-16h-24.855469c-8.023437-76.320312-72.738281-136-151.144531-136s-143.121094 59.679688-151.144531 136h-24.855469c-8.832031 0-16 7.167969-16 16s7.167969 16 16 16zm176-136c60.734375 0 110.945312 45.390625 118.808594 104h-237.617188c7.863282-58.609375 58.074219-104 118.808594-104zm0 0"/><path d="m80 304c-8.832031 0-16 7.167969-16 16s7.167969 16 16 16h224c8.832031 0 16-7.167969 16-16s-7.167969-16-16-16zm0 0"/><path d="m176 16v48c0 8.832031 7.167969 16 16 16s16-7.167969 16-16v-48c0-8.832031-7.167969-16-16-16s-16 7.167969-16 16zm0 0"/><path d="m38.625 123.3125c3.128906 3.128906 7.214844 4.6875 11.3125 4.6875 4.09375 0 8.183594-1.558594 11.308594-4.6875 6.25-6.25 6.25-16.375 0-22.625l-33.933594-33.945312c-6.25-6.246094-16.375-6.246094-22.625 0-6.246094 6.25-6.246094 16.378906 0 22.625zm0 0"/><path d="m356.6875 66.742188-33.933594 33.945312c-6.25 6.25-6.25 16.375 0 22.625 3.117188 3.128906 7.214844 4.6875 11.308594 4.6875 4.097656 0 8.183594-1.558594 11.3125-4.6875l33.9375-33.945312c6.246094-6.246094 6.246094-16.375 0-22.625-6.25-6.246094-16.375-6.246094-22.625 0zm0 0"/></svg>